# xmcd
#
# Track frame offsets: 
#        150
#        16929
#        37240
#        58847
#        79044
#        102044
#        122950
#        138482
#        161665
#        182501
#        200395
#        217602
#        238825
#        255828
#        277062
#        294561
#        313668
#        332706
#
# Disc length: 4730 seconds
#
# Revision: 0
# Processed by: cddbd v1.5.1PL0 Copyright (c) Steve Scherf et al.
# Submitted via: ExactAudioCopy v0.95a3
#
DISCID=04127812
DTITLE=Joe Cocker - Greatest Hits
DYEAR=1900
DGENRE=Blues
TTITLE0=First We Take Manhattan
TTITLE1=Angeline
TTITLE2=The Simple Thing
TTITLE3=My father's Son
TTITLE4=Unchain My Heart
TTITLE5=Feels Like Forever
TTITLE6=Night Calls
TTITLE7=Let The Healing Begin
TTITLE8=Now The Magic Has Gone
TTITLE9=Sorry Seems To Be Hardest Word
TTITLE10=No Ordinary World
TTITLE11=Too Cool
TTITLE12=Out Of The Blue
TTITLE13=She Beleives Me
TTITLE14=Civilized Man
TTITLE15=When A Woman Cries
TTITLE16=You Can Leave Your Hat On
TTITLE17=Different Roads
EXTD=
EXTT0=
EXTT1=
EXTT2=
EXTT3=
EXTT4=
EXTT5=
EXTT6=
EXTT7=
EXTT8=
EXTT9=
EXTT10=
EXTT11=
EXTT12=
EXTT13=
EXTT14=
EXTT15=
EXTT16=
EXTT17=
PLAYORDER=
